<svg xmlns="http://www.w3.org/2000/svg" viewBox="0 0 32 32" role="img" aria-label="d">
  <style>
    .glyph { fill: #46a758; }
    @media (prefers-color-scheme: dark) {
      .glyph { fill: #71d083; }
    }
  </style>
  <path class="glyph" transform="translate(6.9 27.11)" d="M7.64 0.39Q5.61 0.39 4.10-0.63Q2.59-1.66 1.78-3.57Q0.96-5.49 0.96-8.17Q0.96-10.85 1.79-12.76Q2.61-14.67 4.11-15.67Q5.62-16.67 7.72-16.67Q9.51-16.67 10.93-15.84Q11.98-15.21 12.75-13.99L12.75-22.61L17.24-22.61L17.24 0L12.99 0L12.99-2.95Q12.18-1.25 10.82-0.45Q9.42 0.39 7.64 0.39M9.28-3Q10.34-3 11.17-3.56Q12-4.11 12.49-5.26Q12.98-6.41 12.98-8.11Q12.98-10.69 11.92-11.98Q10.87-13.28 9.31-13.28Q7.69-13.28 6.70-11.91Q5.71-10.54 5.71-8.08Q5.71-5.68 6.67-4.34Q7.63-3 9.28-3" />
</svg>
